<?xml version="1.0" encoding="UTF-8"?>
<!DOCTYPE svg PUBLIC '-//W3C//DTD SVG 1.1//EN' 'http://www.w3.org/Graphics/SVG/1.1/DTD/svg11.dtd'>
<svg type="text/css" xmlns="http://www.w3.org/2000/svg" viewBox="0 0 500.4 490.8" height="305" width="305">
  <path fill="#fff" d="M181.3 480.6c-.3-1-1-5.6-1-7.2 0-5.6-9-12-25-17.8-8.8-3.2-15-10.1-15-17 0-1.8-.2-4.2-.5-5.5-.6-2-.7-2.1-3.1-.5-1.8 1.2-5 1.6-11.3 1.7-8.2 0-9-.1-14-3.4-12.6-8-14.2-8.5-22-9l-7.5-.6v-5.5c-.2-7.1-2.2-11-10.5-19-3.8-3.7-7.5-8-8.4-9.7-1.7-3.4-2-16-.5-20.1 1.2-3 0-4.2-6.1-6.6-8.5-3.2-14.1-7.6-16.3-12.5-1-2.5-3-6-4-7.5a75.4 75.4 0 0 1-5-8.8c-2.7-6-6.4-9-12-10.3-2.7-.6-3.6-2.8-1.7-4 2-1.3 5-8.6 5-12.7 0-2.3-.7-7.4-1.5-11.3-3-14-1-26.5 4.6-29.5 1-.5 2.3-2 3-3 .9-1.8.6-2.2-2.3-3.4-4.8-2-8.7-6.6-10.4-12.2a57.2 57.2 0 0 1-1-19.6c.6-9.2.5-14.8-.1-14.8s-1.5-1.8-2.2-4c-.6-2.2-1.6-4-2-4-.5 0-.6-1.1-.3-2.5.3-1.7 1.7-3.2 4.2-4.5 2-1 4.8-3.2 5.9-4.8 3-4.2 9-17.3 9-19.4 0-1 2.5-4.2 5.5-7.2 4.9-4.8 5.8-5.4 11.2-6 5.3-.7 7.3-1.7 7.4-3.7 0-.3-1.3-1-3-1.2-4.6-1-7.5-6-7.5-13.2 0-5.5.5-6.8 5.9-15.6 6.9-11.6 8.9-17.5 8-24l-.6-4.7 4 .5c4.4.6 10.8-2 13.9-6 1-1.2 5.4-4.6 9.8-7.6 10-6.8 15-7.6 22-3.7 2.7 1.5 5 2.4 5.4 2 .3-.2.4-3.1.3-6.3-.4-11 3.7-16.3 19.6-25.3 6.2-3.5 8-6 9-12 1-5.2 2.7-6 7.9-2.3 4.9 3.3 10.3 3.3 21.3 0 10.3-3 17.7-3.2 22.2-.5 4.5 2.8 5.5 2.6 7.4-1.2 3.4-6.7 7.8-9.2 21.4-12a39 39 0 0 0 17-8c4.8-4.4 7-4.7 9-1.2 2.4 4.4 7 6.4 19 8 6.4.8 13.4 2.2 15.7 3 4.6 1.7 9.3 6.5 9.3 9.5 0 2.5 1.5 2.5 3.3 0 2.7-4 6.7-5 17.2-5a42 42 0 0 1 15.5 2c6.2 2 15 2.5 17.9.8 2.7-1.7 4.8-.5 6.6 3.7 1.8 4.3 2.3 4.8 13 11.4a86 86 0 0 1 12.3 9c4.9 4.7 9.2 12.7 9.2 17 0 3.5 2.2 5 4.5 3s11.8-.5 17 2.4c4 2.5 6.8 5.2 12.8 13 4 5.3 9.3 8.4 16.7 10 5.5 1 6.4 1.6 6 3.2-2 11.2-1.1 14.6 6.4 24.4 6 7.9 6.8 10.4 6.7 19.5-.1 6.5-.5 8.3-2.1 10-3.6 3.8-2.6 5.5 3 5.5 8.9 0 12.4 5 20.7 30a118 118 0 0 0 5.6 14.8c.5.7 2.5 1.2 4.3 1.2 3 0 3.4.3 3.4 3 0 1.5-.7 3.4-1.6 4-4 3.5-4.8 6.9-6.2 29.2-.7 11-.8 11.9-3.6 14.8-1.7 1.7-4 3-5.2 3-3.5 0-4.1 3.7-1.1 6.9 5.5 6 6 8.3 5.3 24.6a121 121 0 0 1-2.1 19.9c-1.5 5-1 8.2 2 10 .9.4 1.5 1.8 1.5 3.2 0 2.2-.4 2.4-4.4 2.4-4.4 0-4.5 0-7.5 5.6-1.6 3-3.8 7.6-4.7 10-3.5 9.2-16.7 20.4-24 20.4-4.2 0-5 2.5-3 8.5.9 2.6 1.6 7.7 1.6 11.4 0 6-.4 7.3-2.8 10.4-1.5 2-4 4.5-5.7 5.6-3.4 2.4-15 13.5-17 16.4-1 1.4-1 2.7-.4 4.4.5 1.4.9 2.9.9 3.4 0 1.3-4 1.2-7.8-.1-3.7-1.3-7.7.3-13.4 5.4-12.2 11-22.5 13.8-31.6 8.5-4.6-2.6-5-2.4-5.8 2-.5 3-2 5.5-5.3 9-3.8 4-6.1 5.4-13.1 8a90.2 90.2 0 0 1-12.7 3.7c-5.5.8-8.8 3.5-12 9.8-3.2 6.5-5.1 8.6-7.5 8.6-1.2 0-1.8-.6-1.6-1.7.2-1.2-1.3-2.6-5.1-4.5a30 30 0 0 0-22.6-1.1c-7.3 2.3-13 1.2-20.6-4a23 23 0 0 1-6.7-6c-.7-2.5-1.8-2.1-4 1.8-3.7 6.2-6.2 6.8-27.1 6.5-26-.3-24.8-.5-26.6 3-2 3.7-4.3 6-6 6-1 0-1.5 0-1.6-.2zm95.6-31.8c61-8 115.4-42.4 148.9-94A198.9 198.9 0 0 0 438 161.3 209.4 209.4 0 0 0 332.4 60.6a190.6 190.6 0 0 0-78-16.5A201 201 0 0 0 155 65.3c-20.5 9.7-39.1 23-55 39.3A199.2 199.2 0 0 0 81.6 369a251.5 251.5 0 0 0 41.9 40.8 206.8 206.8 0 0 0 71.8 34c10.5 2.7 26.8 5.4 37.2 6.3 8 .6 36.3-.2 44.5-1.4zm-54-8.5a204.8 204.8 0 0 1-101.5-43.1c-11-9.4-21.2-19.5-30.6-30.4A207 207 0 0 1 56.5 301c-8.6-28.6-10-61.7-4-91.7A197.6 197.6 0 0 1 199.4 58.2c32.4-8 67-7.8 99.3.3 78.4 19 137.2 84 148.3 164 11.8 90.3-41.8 176-130 207.6a208.7 208.7 0 0 1-94 10.2zm53.4-9a191 191 0 0 0 108.4-54 180.7 180.7 0 0 0 35.9-208.5 186.5 186.5 0 0 0-86.2-86 194 194 0 0 0-236.1 51.9 181.5 181.5 0 0 0-11.2 211c30.4 46.8 77 76.8 133 85.5 12.4 2 43 2 56.2 0zm-27.7-10.5c-2.5-1.5-3.2-2.6-3.2-5 0-2.7-.2-2.8-2.6-2-8.3 3.2-15.4-.5-15.4-8 0-7 7.4-12 15.7-10.5 3 .6 3.4.4 3-1.1-.2-1.6-1.5-2-10-2.1l-9.5-.3-.6 6.3c-.3 3.4-.8 9.5-1 13.6-.2 4-.6 7.5-1 7.8-.2.3-1.8-.4-3.3-1.6l-2.8-2.2.4-12c.2-8.2 0-12-.8-12-.6 0-1.1-1.2-1.1-3 0-2 .5-3 1.5-3 .8 0 1.5-.8 1.5-2 0-5.5 5-9 13.5-9 6.8 0 11 2 11.7 5.6.7 3.4.2 3.6-4 2a20 20 0 0 0-7.5-1.3c-3.5.3-4.3.7-4.5 2.6-.3 2.2-.3 2.2 13.2 2.2h13.6v3c0 1.7-.5 3-1 3-.6 0-1 5.3-1 13.8-.1 7.6-.5 14.5-.8 15.5-.7 1.6-1 1.6-4-.3zm-5.4-14.2c1.5-.7 2.8-2 3-3 .3-1.5-.4-1.8-4.3-1.8-2.5 0-5.5.5-6.6 1-2 1-2.6 4-1.2 5.5 1 .9 5.5 0 9-1.7zm36.2 9.2c-3.7-2.8-7.8-3.4-10-1.5-2.2 2-3.2 2-6.4-.5a6.2 6.2 0 0 1-2.6-5.5c0-3.3 0-3.4 4.7-3.7 6.5-.4 7-2.8.6-2.8-6 0-7.3-1.2-7.3-6.2 0-2-.5-3.8-1-3.8-.6 0-1-1.3-1-3 0-2.8 0-3 6.7-3.4 3.8-.4 12.4-1.3 19.2-2.2 13.8-1.7 14.6-1.4 13.6 4.3-.5 2.6 1.4 13 4 22.6.5 1.4 0 1.7-3 1.7s-3.6-.4-4.1-2.5c-.7-3-.5-3-4.8-.8-4.6 2.2-8.1 1.2-10.3-3.1l-1.8-3.5-1.1 2.4c-1 2.2-.7 2.6 4.2 5.7 5.5 3.4 6.3 4.8 4 6.7-.8.7-2 .5-3.6-1zm8.8-14.5c4.2-3 1.8-6.4-3-4-3 1.4-3.8 5.5-1.1 5.5 1 0 2.9-.7 4-1.5zm-3.7-9.7c3.6-1.4 4-1.7 1.8-1.7a56 56 0 0 0-7.2.6c-4 .5-4.5.8-3.7 2.4.6 1 1 3 1 4.6v2.8l1.9-3.5c1.3-2.4 3-4 6.2-5.2zm-15.3 3.5c-.2-1.6-1-2.8-1.8-2.8-1 0-1.6 1.2-1.8 2.8-.3 2.2 0 2.7 1.8 2.7 1.7 0 2-.5 1.8-2.7zm-87 7c-4.2-8.3-5-11-3.5-14.7.8-2 3.8-2 5.5-.3 1 1 1.5 1 2.2-.3 1.9-3 1-4.8-2.6-6.1-2.8-1-3.4-1.7-3-3.3.3-1.1.6-2.6.6-3.4 0-1 .7-1 2.2-.6 2.3.7 15 6.4 15.6 7 .8.7-2.3 5.5-3.3 5-.8-.2-2 1.8-3 5-1.4 3.9-2.4 5.4-3.7 5.4-2.5 0-2.3 3.3.3 8.8 1.8 3.7 2 4.6.8 5.3-2.6 1.7-3.4 1-8-7.8zm134.2 3.7c-3.3-.4-3.8-1-8.5-10.5-3.7-7.3-5.5-10-6.7-9.7-1 .2-2.3-.8-3.2-2.6-1.5-3-1.5-3 1-3.6 2-.5 2.4-1 1.4-2.1-1.8-2.1-.6-9.2 2-12 3.9-4.1 12.4-6 14-3.3 1.7 2.5 1 3.6-2.7 4.3-5.8 1-7.3 2.3-7.3 5.6 0 1.6.4 3 .8 3 .5 0 5.2-2.2 10.5-5 9-4.3 9.8-4.6 11.2-3a6 6 0 0 1 1.5 3.3c0 1 3 6.6 6.5 12.6 3.6 6 6.5 11 6.5 11.4 0 .4-2 .6-4.4.6-3 0-4.6-.4-5-1.4-.4-1.3-1-1.2-4 .5a13 13 0 0 1-7.8 1.8c-3.6-.3-4.6-1-6.5-3.8-3.4-5-1.5-10.4 4.9-14 6.6-3.7 3.5-3.4-4 .4l-7.1 3.5 2.2 4.8 5.6 11c1.7 3.6 3 7 2.9 7.6-.2.7-1.6 1-3.8.6zm11.7-18.5c2.3-2.3 2.4-2.8 1-4.1-1.3-1.4-1.8-1.4-4.5 0-3.6 2-4.6 3.2-3.8 5.2.8 2.3 4.4 1.7 7.3-1.1zM148.7 404c-3.7-3.2-6-7.7-6.3-12.5 0-3 .4-3.8 2-3.8 1.4 0 2 1 2.6 3.6.7 4 3.9 8.4 6 8.4 1.5 0 1.5-.1 0-1.8-3.5-4-.6-6.8 4.2-4.3 1.3.8 1.7.5 1.8-1.2 0-1.2.4-3 .8-4 .6-1.2.4-1.7-.8-1.7-1 0-2.8-1-4.1-2.4-3.3-3.2-3.3-8.6-.1-14.2 1.7-3 2-4.5 1.3-5.2-.7-.8-.7-1.8 0-3.6 1.3-2.6 3.7-3.4 4.8-1.6.3.5 3.8 2.8 7.8 5 10.8 6 11.3 6.5 10 9.8-.5 1.5-1.5 2.6-2 2.5-.7-.1-4 4.5-7.5 10.3a35.7 35.7 0 0 1-7.4 10c-.7-.2-1 .6-.6 2 1 5.6-7.4 8.7-12.5 4.7zm18.7-27.5l2-3.2-2.8-1.7-2.6-1.8-2.7 4.2c-1.5 2.3-2.5 4.6-2.2 5 .2.4 1.7.7 3.4.7 2.2 0 3.4-.7 4.9-3.2zm187.2 4c-1.7-1.7-1.5-3.5.5-4.6 3-1.7.6-2.4-4.4-1.2-5.6 1.3-9.6.3-11.3-3-1.3-2.3-.4-4.3 3.4-8 1.4-1.2 2.6-2.8 2.6-3.3 0-.6-2 .8-4.3 3-5 4.9-5.7 5-8.2 2.3-1.8-2-1.8-2.1 5-8.2 3.9-3.4 11.4-10.5 16.7-15.7l9.8-9.4 2.5 2.4c1.4 1.3 2.3 2.9 2 3.6-.3 1 4.7 6.3 13.8 14 2 1.9 3.6 3.8 3.3 4.2-.3.5-2.5 1-4.8 1.5-4.2.5-4.4.4-11.3-6.3-6.5-6.5-7.1-6.8-9-5.5-1.8 1.4-1.5 2 8.3 11.6 3.7 3.4 7 7 10.2 11 0 .4-1.8.8-4 .8-3.7 0-3.8.2-4.5 4-1 5.4-4.3 8-10.4 8-2.6 0-5.2-.5-6-1.2zm4.7-22.4c-4.4-4.4-5.5-5-7.1-4.2-1.8 1-1.8 1-.4 2.8 2.5 2.7 2 4.4-2.4 8-2.2 1.7-3.8 3.6-3.4 4.2.3.6 2-.6 3.9-2.6 2.4-2.6 3.8-3.4 5-3 2.5 1 3.5 2.4 3.5 5 0 1.8.6 2.4 2 2.4s2.4.9 2.8 2.3c.5 1.5.8.2 1-3.7l.3-6zm-229.4 18c-.5-2.7-.2-4 1-5.5 1-1 1.6-2 1.4-2.1l-4.4-2.3c-10-5-7.2-16.5 3.8-16.5 3.9 0 9.7 3.4 10.4 6 .3 1 1 2 1.4 2 2 0 .6-2.3-4.1-6.6-2.8-2.6-5-5.2-5-5.7 0-.6 1-2 2-3.3l2.3-2.3 6 5.9c3.4 3.2 7.4 6.9 9 8 3 2.5 3.3 3.7 1 6.9-1 1.6-2 2-2.7 1.2-1-.7-3.8 1.6-10.6 8.5-5.2 5.2-9.8 9.4-10.1 9.4-.4 0-1-1.6-1.4-3.6zm9-15.6c-.8-2-8-5-10-4.1-3.1 1.2-1 3.5 5 5.7 4.3 1.5 5.9 1 5-1.6zm91 10.9c-16-2.4-29-6.4-41.8-12.8a135.1 135.1 0 0 1-57.4-57.4 123.8 123.8 0 0 1 0-108 131 131 0 0 1 97.2-70c70.7-10.6 136 34 149.6 102a179 179 0 0 1 0 44c-10 50.8-50 90-102.6 101-15 2.3-30 2.7-45 1.2zm45-12a118 118 0 0 0 59.6-32.6c14.7-14 25.2-32 30.4-51.6a120 120 0 0 0 1.6-49.2c-6-28.8-22.6-54-47.2-71.5a134.6 134.6 0 0 0-52.2-20.8c-13-1.5-26.1-1.3-39 .5-42 6.8-77.8 35.7-92.4 74.4-6.8 18-8.7 40.7-5 59.6a119 119 0 0 0 95.2 92 182 182 0 0 0 49-1zM198.3 296c-5-2.4-7.2-5.7-7.7-11.6-.4-5-.2-5.8 2.9-9.8a43 43 0 0 1 4.4-5c.5-.4 11-.7 23.4-.7h22.3l3 2.4c2.4 2 4 2.5 8.6 2.5 4.5 0 6.6-.5 9.4-2.5 3.6-2.4 4-2.5 22.5-2.5 17 0 19 .2 22 2 4 2.5 6.3 7.3 6.3 13.4 0 4-.4 4.9-4.1 8a16.2 16.2 0 0 1-8.3 4c-2.2.4-26.1.8-53 .9-39 .2-49.5 0-51.7-1zm-6.5-31.2c-6-2.3-11.2-6.1-15.2-11-3.1-4.6-3-11.2.3-14.5 1.3-1.4 3-2.5 4-2.5 2.5 0 1.7-2.3-2-5.1-8-6.5-8.5-14.2-2-30 4.3-10 6.4-13 9.4-13 1.3 0 3.3 4.7 7.2 16.6 4.6 14 4 19.6-3 25.8-3.7 3.3-3.3 4.7 1.2 4.7 1.8 0 5 1 7.2 2a54 54 0 0 0 29.7 0c3-1 8.5-2.1 12.2-2.5 8.5-1 10.2-2.7 6-6.2-5-4.4-6.4-7.2-6.4-14 0-9.6 8.3-30.3 12-30.3 2 0 3.8 3.4 4.4 8 .4 2.8 2 7.8 3.7 11 5.5 10.8 4.9 19.8-1.6 24.9-4.6 3.6-2.2 7 4.8 7 1.8 0 6 1 9.2 2 6.7 2.4 20.3 2.9 23.8.9 1.2-.6 4.7-1.4 7.7-1.7 7-.7 7.7-2.8 2.7-8-2-2-4-4.8-4.6-6.4-1.8-4.6-1.3-11.5.9-14.4 1-1.4 2-3 2-3.7s1-4.2 2-8c1.9-5.6 2.5-6.6 4.3-6.4 1.3.2 2.3 1.4 2.8 3.2.4 1.6 1.6 3.9 2.7 5 4 4.6 8.2 14.4 8.2 19.4 0 4.6-.8 6.5-7.3 17-.5.7.3 1.7 2.2 2.7 5.4 2.8 6.7 11.7 2.5 18-5.2 8-6 8.4-32 9l-23 .8-5-2.6c-6-3.2-7.3-3.3-12.5-.6-4.4 2.2-8 2.6-37 3.3-7.1.4-14.4.3-21.5-.4zM98 353.3c-1.2-3.3-.5-5 2.4-6.1 3-1.2 3-1.3 3-8.8 0-8.6 1.4-11 7.4-12 5-1 6.7-.1 10 5 1.5 2.4 3.2 4.4 3.7 4.4 1.5 0 1-1-2.7-6.7-3.5-5.2-3.5-5.5-1.8-7.3 1-1 2.2-2 2.8-2 1 0 5.5 6 13.5 17.2 1.2 1.7 1 2.2-1 4.4-1.7 1.8-2.6 2-3.5 1.3-1-.8-2.1-.5-4.4 1-3.8 2.8-5.4 2.3-8-2.6-2.5-5.2-5.4-7.6-8-6.8-1.4.5-2 1.4-2 2.8.4 1.7 1.2 2.2 4 2.2 3.2 0 3.5.3 3.8 3.2.4 4-2.2 6.7-6 6-2.6-.6-2.8-.4-2.8 2.2 0 2.4-.5 3-3.1 3.5-5 1-6.6.8-7.3-1zm283.9-9c-4.3-2.3-6.2-4.2-7-7-.7-3 1.8-9.2 4-10a3 3 0 0 0 1.5-2.6c0-1 1-3 2.4-4.4 1.4-1.3 2-2.7 1.5-3-1.5-1-2.5.2-8 9l-5.1 8.5-3-1.5c-1.5-.8-2.8-1.7-2.8-2 0-.5 1.8-3.5 10.4-16.7 6-9.3 6.8-9.7 10.7-5 .9 1 6 4.2 11.2 7 5.4 3 9.7 5.7 9.7 6s-1.1 1.5-2.5 2.2c-2 1-3 1-6.8-.3-6.1-2.4-8.7-2.2-8.7.6 0 1.3.7 3.3 1.6 4.5.8 1.2 1.2 2.7.9 3.2-.8 1.3-6.2 1.3-7 0-1-1.4-2.5-1.2-2.5.4 0 2 3.3 4.6 5.9 4.6a16 16 0 0 0 5.3-1.5c3.2-1.7 4.2-1.3 5.2 2.2.6 1.8-.1 2.5-4.6 4.7-6 3-8.2 3.2-12.3 1zm-291.3-22c.3-3.7.4-3.8 9.3-7.6l10.6-4.6c1.2-.6 1.5-1.3.9-3-.8-2-1-2-13.6 1.8-7 2.2-13 3.7-13.5 3.4-1-.7-.8-4.6.4-6.2.5-.7 1.9-1.3 3-1.3 2 0 2-.1-.6-2.7a19.7 19.7 0 0 1-3.7-6c-2.1-6 2-14.3 7-14.3.7 0 2.6 1.2 4 2.6 2.4 2.2 3 2.4 4.9 1.5 1.4-.7 2-2.1 2-4 0-3.2.4-3.5 4-4.4 2.7-.6 2.8-.3 8.9 18.3 3.4 10.4 6.2 19.4 6.2 20 0 .5-1 1.5-2.1 2-1.7 1-2.3 1-3-.1-.6-1-3-.3-11 3-14.8 6.2-14.1 6-13.7 1.6zm13-23.4c2.5-1 2.8-1.4 2.2-3.8-1-3.7-.7-3.7-5.3-1l-4 2.2-2-2.2c-1.2-1.2-2.6-2.3-3.1-2.3-2 0-1 3.5 1.7 6.3 3 3 4.5 3 10.6.8zM398 310.3c-.4-.4-.7-2-.7-3.4 0-1.5-.6-3.5-1.3-4.5-1.2-1.6-1.4-1.6-2.6-.1-.8.8-2.2 1.5-3.2 1.5s-2 .5-2 1c0 1.3-4 1.3-5.7.2-1.1-.7-.8-3 1.6-11.8l3.6-13.6c.7-2.8 2-3.3 6.3-2.1 1.3.3 2.3 1.3 2.3 2.2 0 1.2 3 2.5 12 5 6.6 2 12 4 12 4.6 0 2-2.7 4.5-4.7 4.5-1.8 0-2 .7-2 5.6 0 7.3-2.8 10.5-10 11.2a16 16 0 0 1-5.6-.3zm8.9-9c.3-1.2 0-4-.6-6-1-3-1.8-3.6-7-5.3l-5.7-2-1 3.5c-1 3-1 3.3 1 3.3 4.7 0 8.7 2.2 9.3 4.9 1.2 5 3 5.7 4 1.7zM93.3 226.2c-2.5-6.6-7-8.3-8.8-3.3-.5 1.7-1.6 3-2.4 3s-2.8.3-4.5.6l-3 .7 2.9-14c1.6-7.8 4.3-18 6-22.8 2.8-7.7 3.4-8.6 5.3-8 1 .3 2.4.5 2.8.5.5 0 .8.9.8 1.9 0 1.5 2 2.4 10.5 4.6l10.5 2.8-.6 3.6a21 21 0 0 1-1 4s-2.8-.6-6-1.6a70.6 70.6 0 0 0-16.7-4.2c-.3.2-.7 1.6-1 3-.6 2.4-.3 2.7 3 3.7 19.2 5.4 19.3 5.5 19.3 7.8 0 1.2-1 2.9-2.4 3.8-1.8 1.2-2.4 2.7-2.8 6.6-.6 6-3.7 10-8 10-2.2 0-3.1-.6-4-2.7zm6-10.6c0-1.2.6-2.8 1.2-3.4.9-1 .5-1.3-1.7-1.8a206 206 0 0 1-8-2c-2.6-.8-5.2-1-5.6-.7-1 1.2-2.2 8.6-1.2 8l4.7-2.3 3.8-2 2.5 3.3c3 3.8 4.4 4 4.4 1zm292.7 6.2c-.3-1.8-.2-3.5.3-3.8 2.2-1.4 2-7.4-.4-13.2-.5-1.3.3-2.4 3.2-4.2l3.8-2.5 3.6 3.9 3.5 4 1.8-5c1-2.8 2.2-5 2.7-5s.9-1.2.9-2.6c0-2 .5-2.5 3-2.5 1.6 0 3 .2 3 .4 0 .7 6 29.2 6.6 30.8.7 2.3-4.6 3.6-6.1 1.5-1-1.2-2.6-1.3-10-.6-4 .4-8.1.8-12.1 1.4-3 .5-3.2.3-3.8-2.6zm23-7c0-.2-.3-3-1-6.1l-1.1-5.8-2.8 4.5c-3.1 4.9-4.2 5.4-7.3 3-3-2.1-3.4-1.8-3.2 2.2v3.6l7.6-.6c4-.3 7.5-.7 7.7-.8zm-31.4 2c-.7-.7-1.2-2.4-1.2-4 0-4.7 4.2-6.5 7.3-3 3.2 3.4 1.5 8-2.8 8-1.2 0-2.6-.4-3.3-1.1zm0-24.1c-1.2-4.2-1-4.5 4.7-7 8.5-3.6 10.4-7.3 3.2-6.1-4.7.7-5.7-.5-3.4-4.5 1.7-3 1.7-3-.1-5-2.4-2.7-5.2-1.1-3.6 1.9 1.4 2.6 1.2 5.5-.5 7-2.3 1.9-7.5-.6-7.5-3.6 0-3.5 2-7.2 4.7-9 5.6-3.7 16-.8 15 4-.2 1.5 0 2.5.4 2.5 1.7 0 3.9 3.3 3.9 5.8s0 2.6 1.7 1c1.8-2 2.2-1-7.5-19.8-.3-.8 4.9-3.2 5.5-2.6 5 9 9.2 18.2 12.7 27.8-.4.6-2.1.7-4 .4-2.6-.5-5 .4-13.5 5-5.6 3-10.4 5.4-10.5 5.4-.2 0-.7-1.4-1.2-3.2zm-280-12c-4.1-1.8-6.8-2.5-7.4-2-1 1-6.8-.6-6.8-2 0-1 9.9-20.8 11.2-22.4 1.2-1.6 5.8.3 5.8 2.3 0 .8-1.4 4-3 7.3a63 63 0 0 0-3 6.5c0 .5 5.5 3.5 6.4 3.5.3 0 .6-2.8.6-6.3 0-6.6 1.5-10.2 4-9.2a17 17 0 0 1 4.4 5c3 5 7.7 8 10.7 7.2 1-.2 2.3 0 3 .9.8 1 .5 1.6-1 2.4-2.4 1.3-7.3 1.4-8.7.2-1-.7-2-1.3-3.1-1.6l-2.3-.7 1.7 4.4c.9 2.5 1.3 5.2 1 6-1 2.5-6 1.9-13.6-1.5zm264.8-16.3c-1.4-1.5-2-2.8-1.4-3.3l9-7.1c4.7-3.5 8.4-6.6 8.4-7s-1-1.6-2-2.6c-2-1.7-2-1.7-4 0a7 7 0 0 0-2 4.5c0 3.2-4 7.3-9.2 9.5-5 2-5.8 2-5.8-1 0-1.7.7-2.8 2.4-3.4 1.4-.5 3.2-2.6 4.2-4.6s3.3-5.2 5.2-7c3-3 3.3-3.6 2-5.2-2.9-4-6.4-7.4-10.3-10.2-.5 0-2.5 1.3-4.2 2.8l-3.3 2.9 6 1.3c3.3.7 6.3 1.6 6.6 2s.3 2.3 0 3.9c-.6 2.4-1.4 3-4.6 3.6-4.4.7-9 5.2-9 8.7 0 2 0 2-2 .2-2.7-2.4-2.5-4.4.6-9l2.5-3.7-2.3.7c-6.3 2-6.7 1.9-7.4-1.1-1.3-4.8-.8-5.8 5.8-12.2 5-5 6-6.3 4.8-7-1.2-1-1.2-1.4 0-3.6.7-1.4 1.9-2.6 2.6-2.6 2 0 26.2 23.9 31 30.6 2.4 3.4 4.4 6.7 4.4 7.3 0 1.4-4.5 2.6-6 1.7-.6-.4-5 2.5-9.8 6.4-4.7 3.9-9 7-9.3 7s-1.6-1-3-2.5zM123 157.2c-2.6-2-4.7-4-4.7-4.7 0-.6.7-3.6 1.5-6.7a66 66 0 0 0 1.5-6.3c0-.4-2.3 1.8-5 5-3 3.2-5.5 6-6 6-.3.3-1.6-.7-3-2l-2-2.3 9.3-9.7c9-9.6 9.2-9.7 11.4-8.2 1.3 1 2.3 2.5 2.3 3.5s3.5 4.9 8.5 9.2c10.3 8.9 10.9 11 2.8 11.9-6 .6-5.5.3-7.7 4.7-1 1.8-2.2 3.2-3 3.2a24 24 0 0 1-6-3.6zm11-8.7c.2-.2-.8-1.4-2.2-2.6-2-2-2.7-2.1-4-1-.8.6-1.5 2.5-1.5 4v3l3.7-1.6zm18.7-5.1c-1.8-3-1.4-6.1 1.3-9.5 1.7-2 2.3-2.1 11.5-1.5 7 .5 9.8 1 10.2 2.2 1 2.3-.3 3.2-4.4 3.2-3 0-4 .5-4.5 2-1.8 5.8-11.1 8-14 3.6zm7.6-4c1-1.3.9-1.6-1-1.6-1.1 0-2 .7-2 1.5 0 .9.4 1.5.9 1.5s1.4-.6 2-1.5zm-14.8-5.6c-1.4-.6-2.3-1.7-2.2-2.7.4-3.3 0-4.3-1.8-4.3-1 0-2.2 1-2.7 2.3-1.2 2.6-4 3.4-6 1.7-3.5-3-.3-15 4.6-17.5a23 23 0 0 1 8.4-1.5h5.5l-1.6-2.5c-1.7-2.5-1.6-2.7 1.4-5.7s3.2-3.1 5.2-1.3c1 1 2 3 2 4.3s2.5 6.2 5.5 10.7 5.5 8.5 5.5 8.9a19 19 0 0 1-6.3 3.6c-.2 0-2.1-2.4-4.3-5.4a29 29 0 0 0-4.5-5.5c-.6 0-2.5 6-3.4 10.9-.7 3.6-2.6 5-5.3 4zm1.8-13.4l.6-2c.5-1.1 0-1.6-1.8-1.6-2.4 0-4.8 1.7-4.8 3.2 0 .5 1.3.8 3 .8 1.6 0 3-.1 3-.4zm186.5 13c-1.1-.7-2-1.8-2-2.2-.4-3.3-3-6.3-7-8.2l-4.4-2.1 1.4-4.8c.8-2.6 1.5-5.2 1.5-5.7s3.6-.6 8.3-.3c4.6.4 8.8.3 9.5-.1 1-.7-7-6.3-12.8-8.8-2.7-1.1-2.7-1-7.6 8.9-1.7 3.6-3.5 7-5.6 10.4-1 .5-5.8-1.8-5.8-2.8 0-.5 2.2-5.3 5-10.7 3.6-7.3 4.6-10.2 3.8-11-1-.8-.8-1.8 0-3.7 1-2 1.8-2.5 3.5-2 1.6.3 2.6-.1 3.5-1.5 1.7-2.8 11.7-2.7 17.2 0 4.9 2.5 9 7.8 6.9 9-2 1.4-2.4 1.3-6.5-1.5-2-1.3-4.7-2.5-6-2.6-1.3 0-3-.2-3.6-.3-.6 0-1.3.4-1.5 1a40 40 0 0 0 11 8 579 579 0 0 1 11.5 7c1 1-1.2 4.4-3 4.4-1.7 0-4.8 4.3-14.3 19.5-1 1.5-1.2 1.5-3 .2zm4.5-14.8c0-.4-1.8-.8-4-.8h-4.2l2.4 3 2.3 2.8 1.7-2.1c1-1.2 1.8-2.5 1.8-3zm-157 8.2c-1.8-3.4.4-6.1 4.8-5.8 3 .3 3.8.8 4 2.6.2 1.3-.2 3-.8 3.8-1.8 2.2-6.7 1.8-8-.6zm-9.1-9.8l-4.4-4 4-4.7c7.6-9 8.7-10.6 8.2-11-.3-.4-4 1-8.4 2.9l-7.8 3.4-2.2-2c-1.2-1.1-2-2.5-1.6-3 .3-.5 6.2-3.7 13-7 11.7-5.4 12.8-5.7 14-4.1.7.9 1 2.7.7 4-.4 1.3 1 6.6 3.5 13.4 2.8 7.7 3.8 11.7 3 12.5-.5.7-2.7 1-5.7.7a14 14 0 0 0-8 1c-1.7 1-3.3 1.7-3.5 1.7-.3 0-2.4-1.7-4.8-3.8zm13.9-5.6c.4-.4-2-6.6-2.7-6.5-.7 0-5.1 6.2-5.1 7.4 0 .6 7-.1 7.8-1zm106.2 7a18 18 0 0 0-7-4c-3.3-1-4.6-2-5.3-4-.5-1.5-.7-3-.4-3.2.3-.3 3.8-1.3 7.8-2.4 7.8-2 8.5-2.6 9.4-8.1.8-5-.1-8-2.6-8-2.3 0-2.4 1-.3 4 3.4 4.9-1.2 9.6-5.6 5.7-1.3-1.3-2.2-1.3-4.8-.3-2.7 1-3.4.9-5.2-.7-2.8-2.6-2.5-5.3 1.2-8.7 2.6-2.4 2.9-3.2 1.7-4a6 6 0 0 0-2.2-.8c-.6 0 0-5 .8-5.8.5-.7 5.5 1.8 7.2 3.7 1.6 1.7 2.4 1.9 5.2 1 4-1 5.5-.5 7 2.8l1.4 2.7 1-2.7c1.3-3.2 1.9-3.3 5.8-1 3.4 2 3.7 4.4.8 5.8-1.7.7-3.3 4.3-7 15.4-2.5 8-5 14.6-5.5 14.8-.6 0-2.1-1-3.4-2.3zm1-8c0-1-1-1.5-2.8-1.5-2.6 0-2.6 0-.8 1.5 2.5 1.8 3.6 1.8 3.6 0zm-32.2-5.7c-2.3-2-2.6-2.1-8.5-2l-4.1.3-1.7-5.7c-1-3.1-1.3-6-1-6.3.3-.4 3.8-2 7.7-3.7 4-1.6 7.3-3.5 7.5-4 .4-1.2-15.3-2.7-17-1.8-.4.3-.7 5.8-.7 12.4v12h-7l-.2-11.8c-.3-11.2-.4-11.8-2.4-12a3.4 3.4 0 0 1-2.7-2.8c-.5-3 0-3.5 2.8-3.5 1.5 0 2.6-1 3.6-3.2 2.7-6.3 15-9.4 21-5.3 3.3 2 4 6.3 1 5-4-1.8-10.2-1.7-12.3.2l-2 1.8 2.8.7c1.6.3 8 .7 14 .7h11.4v3c0 2-.6 3-2 3.4-1.7.5-2 1.4-2 6.9 0 3.5-.3 8.7-.6 11.5-.6 4.4-1 5.2-3 5.6-1.5.3-3.3-.3-4.6-1.4zm.7-14.6c-.7-.8-7.8 3.3-8.3 4.7-.2.6.5 1 1.5 1s3 .7 4.3 1.5c2.5 1.4 2.5 1.3 2.8-2.6.2-2.2 0-4.3-.3-4.6z"/>
</svg>